<svg width="192" height="192" viewBox="0 0 192 192" fill="none" xmlns="http://www.w3.org/2000/svg">
  <rect width="192" height="192" rx="44" fill="#12151C"/>
  <path d="M48 118h96c13.3 0 24-10.7 24-24s-10.7-24-24-24c-4.2 0-8.2 1.1-11.6 3C125.1 55.5 107.8 44 88.8 44 65.7 44 46.7 61.3 44.2 83.8 32.5 86.8 24 97.3 24 109.8 24 124.6 33.2 118 48 118Z" fill="#171B24" stroke="url(#cloudStroke)" stroke-width="6"/>
  <path d="M48 140h20l14-24 24 38 18-30h20" stroke="url(#waveGradient)" stroke-width="8" stroke-linecap="round" stroke-linejoin="round"/>
  <circle cx="68" cy="140" r="8" fill="#00E676"/>
  <circle cx="106" cy="154" r="8" fill="#00D1FF"/>
  <circle cx="144" cy="124" r="8" fill="#2962FF"/>
  <path d="M101 61 78 94h17l-6 32 26-42H98l3-23Z" fill="url(#boltGradient)"/>
  <defs>
    <linearGradient id="cloudStroke" x1="24" x2="168" y1="44" y2="118" gradientUnits="userSpaceOnUse">
      <stop stop-color="#00E676"/>
      <stop offset="1" stop-color="#00D1FF"/>
    </linearGradient>
    <linearGradient id="waveGradient" x1="48" x2="144" y1="116" y2="154" gradientUnits="userSpaceOnUse">
      <stop stop-color="#00E676"/>
      <stop offset=".58" stop-color="#00D1FF"/>
      <stop offset="1" stop-color="#2962FF"/>
    </linearGradient>
    <linearGradient id="boltGradient" x1="78" x2="115" y1="61" y2="126" gradientUnits="userSpaceOnUse">
      <stop stop-color="#F8FAFC"/>
      <stop offset="1" stop-color="#00D1FF"/>
    </linearGradient>
  </defs>
</svg>
