<svg width="192" height="192" viewBox="0 0 192 192" fill="none" xmlns="http://www.w3.org/2000/svg">
  <rect width="192" height="192" rx="44" fill="#12151C"/>
  <path d="M47 118h98c12.7 0 23-10.3 23-23s-10.3-23-23-23c-4.7 0-9.1 1.4-12.7 3.8C125.4 57.8 108 46 88.8 46 65.1 46 45.7 64.1 43.6 87.2 32.1 89.9 24 100.1 24 112c0 14 9 6 23 6Z" fill="#171B24" stroke="url(#cloudStroke)" stroke-width="6"/>
  <path d="m63 137 18-18 14 14-18 18c-3.9 3.9-10.1 3.9-14 0s-3.9-10.1 0-14Z" fill="#273040" stroke="#00D1FF" stroke-width="5"/>
  <path d="M114 71c9.6-3.9 20.9-1.9 28.7 5.9 7.8 7.8 9.8 19.1 5.9 28.7l-16.4-16.4-14 14 16.4 16.4c-9.6 3.9-20.9 1.9-28.7-5.9-7.8-7.8-9.8-19.1-5.9-28.7l16.4 16.4 14-14L114 71Z" fill="url(#toolGradient)"/>
  <defs>
    <linearGradient id="cloudStroke" x1="24" x2="168" y1="46" y2="118" gradientUnits="userSpaceOnUse">
      <stop stop-color="#00E676"/>
      <stop offset="1" stop-color="#00D1FF"/>
    </linearGradient>
    <linearGradient id="toolGradient" x1="97" x2="151.6" y1="69" y2="123.6" gradientUnits="userSpaceOnUse">
      <stop stop-color="#F8FAFC"/>
      <stop offset=".55" stop-color="#00E676"/>
      <stop offset="1" stop-color="#00D1FF"/>
    </linearGradient>
  </defs>
</svg>
